<svg width="86" height="75" viewBox="0 0 86 75" fill="none" xmlns="http://www.w3.org/2000/svg">
<rect width="86" height="75" rx="2" fill="#F3F3F3"/>
<path fill-rule="evenodd" clip-rule="evenodd" d="M30.176 25.6L29.5929 22.1H27.4999C27.1877 20.896 26.1013 20 24.8 20C23.2558 20 22 21.2558 22 22.8C22 24.3442 23.2558 25.6 24.8 25.6C26.1013 25.6 27.1877 24.704 27.5006 23.5H28.4064L28.7564 25.6H28.7298L32.3495 43.8112C30.624 43.9428 29.1869 45.2714 29.0175 46.943C28.9181 47.9265 29.2415 48.9114 29.9051 49.6436C30.5694 50.3779 31.5158 50.8 32.5 50.8H33.9C33.9 53.1163 35.7837 55 38.1 55C40.4163 55 42.3 53.1163 42.3 50.8H50C50 53.1163 51.8837 55 54.2 55C56.5163 55 58.4 53.1163 58.4 50.8H61.2C61.5871 50.8 61.9 50.4871 61.9 50.1C61.9 49.7129 61.5871 49.4 61.2 49.4H58.155C57.5768 47.7711 56.0249 46.6 54.2 46.6C52.3751 46.6 50.8232 47.7711 50.245 49.4H42.055C41.4768 47.7711 39.9249 46.6 38.1 46.6C36.2751 46.6 34.7232 47.7711 34.145 49.4H32.5C31.9106 49.4 31.3436 49.1466 30.9432 48.7049C30.5393 48.2576 30.3496 47.6822 30.4105 47.0837C30.5169 46.0274 31.4927 45.2007 32.6316 45.2007H33.1853H33.2126H60.5084C62.4341 45.2 64 43.6341 64 41.7091V25.6H30.176ZM24.8 24.2C24.0279 24.2 23.4 23.5721 23.4 22.8C23.4 22.0279 24.0279 21.4 24.8 21.4C25.5721 21.4 26.2 22.0279 26.2 22.8C26.2 23.5721 25.5721 24.2 24.8 24.2ZM57 50.8C57 49.2558 55.7442 48 54.2 48C52.6558 48 51.4 49.2558 51.4 50.8C51.4 52.3442 52.6558 53.6 54.2 53.6C55.7442 53.6 57 52.3442 57 50.8ZM38.1 48C39.6442 48 40.9 49.2558 40.9 50.8C40.9 52.3442 39.6442 53.6 38.1 53.6C36.5558 53.6 35.3 52.3442 35.3 50.8C35.3 49.2558 36.5558 48 38.1 48ZM60.5091 43.8C61.662 43.8 62.6 42.862 62.6 41.7091V27H30.4357L33.7747 43.8H60.5091Z" fill="black"/>
</svg>
